<?xml version="1.0" encoding="utf-8"?>
<!-- Generator: Adobe Illustrator 26.2.1, SVG Export Plug-In . SVG Version: 6.00 Build 0)  -->
<svg version="1.1" id="圖層_1" xmlns="http://www.w3.org/2000/svg" xmlns:xlink="http://www.w3.org/1999/xlink" x="0px" y="0px"
	 viewBox="0 0 200 200" style="enable-background:new 0 0 200 200;" xml:space="preserve">
<style type="text/css">
  path {
    fill: black;
  }
  @media (prefers-color-scheme: dark) {
    path { 
			fill: white; 
		}
  }
</style>
<g>
	<g>
		<path d="M181.78,46.21c0.66-1.14,0.27-2.07-0.88-2.07h-33.14c-1.14,0-2.61,0.93-3.27,2.07l-20.33,35.21l-1.62,2.8
			c-1.91,0.65-3.82,1.39-5.73,2.23c1.17-1.65,2.27-3.33,3.25-5.03l20.33-35.21c0.66-1.14,0.27-2.07-0.88-2.07H106.4
			c-1.14,0-2.61,0.93-3.27,2.07L82.8,81.42l-1.62,2.8c-1.91,0.65-3.82,1.39-5.73,2.23c1.17-1.65,2.27-3.33,3.25-5.03l20.33-35.21
			c0.66-1.14,0.27-2.07-0.88-2.07l-33.14,0c-1.14,0-2.61,0.93-3.27,2.07L41.43,81.42l-20.28,35.13c0,0.01-0.01,0.01-0.01,0.02
			c0,0.01-0.01,0.01-0.01,0.02c-0.64,1.13-0.25,2.05,0.88,2.05c0,0,0,0,0,0c0.01,0,0.02,0,0.03,0c6.31-0.34,13.08-2.15,19.76-5.09
			c-1.17,1.65-2.27,3.33-3.25,5.03l-20.33,35.21c-0.66,1.14-0.27,2.07,0.88,2.07h33.14c1.14,0,2.61-0.93,3.27-2.07l20.33-35.21
			l1.62-2.8c1.91-0.65,3.82-1.39,5.73-2.23c-1.17,1.65-2.27,3.33-3.25,5.03l-20.33,35.21c-0.66,1.14-0.27,2.07,0.88,2.07l33.14,0
			c1.14,0,2.61-0.93,3.27-2.07l20.33-35.21l1.62-2.8c1.91-0.65,3.82-1.39,5.73-2.23c-1.17,1.65-2.27,3.33-3.25,5.03l-20.33,35.21
			c-0.66,1.14-0.27,2.07,0.88,2.07h33.14c1.14,0,2.61-0.93,3.27-2.07l20.33-35.21l20.28-35.13c0-0.01,0.01-0.01,0.01-0.02
			c0-0.01,0.01-0.01,0.01-0.02c0.64-1.13,0.25-2.05-0.88-2.05c0,0,0,0,0,0c-0.01,0-0.01,0-0.02,0c0,0,0,0-0.01,0
			c-6.31,0.34-13.08,2.15-19.76,5.09c1.17-1.65,2.27-3.33,3.25-5.03L181.78,46.21z M74.24,117.67l-20.33,35.21
			c-0.38,0.66-1.29,1.16-1.69,1.16l-32.05,0l19.94-34.54c1.51-2.61,3.26-5.16,5.2-7.61c10.47-5.26,20.46-13.16,27.81-22.35
			c2.2-1.09,4.43-2.05,6.65-2.88l-17.26,29.9c0,0.01-0.01,0.01-0.01,0.02c0,0.01-0.01,0.01-0.01,0.02
			c-0.64,1.13-0.25,2.05,0.88,2.05c0,0,0,0,0,0c0.01,0,0.02,0,0.03,0c3.7-0.2,7.55-0.91,11.46-2.05L74.24,117.67z M115.62,117.67
			l-20.33,35.21c-0.38,0.66-1.29,1.16-1.69,1.16l-32.05,0l19.94-34.54c1.51-2.61,3.26-5.16,5.2-7.61
			c10.47-5.26,20.46-13.16,27.81-22.35c2.2-1.09,4.43-2.05,6.65-2.88l-17.26,29.9c0,0.01-0.01,0.01-0.01,0.02
			c0,0.01-0.01,0.01-0.01,0.02c-0.64,1.13-0.25,2.05,0.88,2.05c0,0,0,0,0,0c0.01,0,0.02,0,0.03,0c3.7-0.2,7.55-0.91,11.46-2.05
			L115.62,117.67z M176.85,83.27l-19.86,34.4l-20.33,35.21c-0.38,0.66-1.29,1.16-1.69,1.16l-32.05,0l19.94-34.54
			c1.51-2.61,3.26-5.16,5.2-7.61c10.47-5.26,20.46-13.16,27.81-22.35C162.88,86.06,170.1,83.83,176.85,83.27z"/>
	</g>
</g>
</svg>
